<svg width="1921" height="950" xmlns="http://www.w3.org/2000/svg"><g><path d="M-100,-50L-115,108L40,41Z" fill="#ffffde" stroke="#ffffde" fill-opacity="1" stroke-opacity="1"/><path d="M-100,-50L40,41L107,-69Z" fill="#ffffe4" stroke="#ffffe4" fill-opacity="1" stroke-opacity="1"/><path d="M-100,-50L107,-69L341,-111Z" fill="#fffada" stroke="#fffada" fill-opacity="1" stroke-opacity="1"/><path d="M107,-69L40,41L195,78Z" fill="#fffad0" stroke="#fffad0" fill-opacity="1" stroke-opacity="1"/><path d="M107,-69L195,78L208,-65Z" fill="#fff8d3" stroke="#fff8d3" fill-opacity="1" stroke-opacity="1"/><path d="M107,-69L208,-65L341,-111Z" fill="#fff6cf" stroke="#fff6cf" fill-opacity="1" stroke-opacity="1"/><path d="M208,-65L195,78L395,78Z" fill="#fff4bd" stroke="#fff4bd" fill-opacity="1" stroke-opacity="1"/><path d="M208,-65L395,78L341,-111Z" fill="#fff2c6" stroke="#fff2c6" fill-opacity="1" stroke-opacity="1"/><path d="M341,-111L395,78L506,31Z" fill="#ffedb6" stroke="#ffedb6" fill-opacity="1" stroke-opacity="1"/><path d="M341,-111L506,31L534,-57Z" fill="#ffe9b7" stroke="#ffe9b7" fill-opacity="1" stroke-opacity="1"/><path d="M341,-111L534,-57L699,-74Z" fill="#ffe3b1" stroke="#ffe3b1" fill-opacity="1" stroke-opacity="1"/><path d="M341,-111L699,-74L788,-101Z" fill="#ffdca9" stroke="#ffdca9" fill-opacity="1" stroke-opacity="1"/><path d="M341,-111L788,-101L1143,-117Z" fill="#fecfa1" stroke="#fecfa1" fill-opacity="1" stroke-opacity="1"/><path d="M534,-57L506,31L677,86Z" fill="#ffdfa1" stroke="#ffdfa1" fill-opacity="1" stroke-opacity="1"/><path d="M534,-57L677,86L699,-74Z" fill="#ffd9a4" stroke="#ffd9a4" fill-opacity="1" stroke-opacity="1"/><path d="M699,-74L677,86L869,35Z" fill="#fecf98" stroke="#fecf98" fill-opacity="1" stroke-opacity="1"/><path d="M699,-74L869,35L788,-101Z" fill="#fecca0" stroke="#fecca0" fill-opacity="1" stroke-opacity="1"/><path d="M788,-101L869,35L947,-99Z" fill="#fec49d" stroke="#fec49d" fill-opacity="1" stroke-opacity="1"/><path d="M788,-101L947,-99L1143,-117Z" fill="#feb799" stroke="#feb799" fill-opacity="1" stroke-opacity="1"/><path d="M947,-99L869,35L987,65Z" fill="#feba94" stroke="#feba94" fill-opacity="1" stroke-opacity="1"/><path d="M947,-99L987,65L1130,51Z" fill="#feae8f" stroke="#feae8f" fill-opacity="1" stroke-opacity="1"/><path d="M947,-99L1130,51L1143,-117Z" fill="#fda695" stroke="#fda695" fill-opacity="1" stroke-opacity="1"/><path d="M1143,-117L1130,51L1286,59Z" fill="#f7988b" stroke="#f7988b" fill-opacity="1" stroke-opacity="1"/><path d="M1143,-117L1286,59L1317,-94Z" fill="#f3918f" stroke="#f3918f" fill-opacity="1" stroke-opacity="1"/><path d="M1143,-117L1317,-94L1385,-98Z" fill="#f18d8e" stroke="#f18d8e" fill-opacity="1" stroke-opacity="1"/><path d="M1143,-117L1385,-98L1993,-95Z" fill="#dc8093" stroke="#dc8093" fill-opacity="1" stroke-opacity="1"/><path d="M1317,-94L1286,59L1385,-98Z" fill="#ed8a8f" stroke="#ed8a8f" fill-opacity="1" stroke-opacity="1"/><path d="M1385,-98L1286,59L1458,60Z" fill="#e98788" stroke="#e98788" fill-opacity="1" stroke-opacity="1"/><path d="M1385,-98L1458,60L1575,-62Z" fill="#e08192" stroke="#e08192" fill-opacity="1" stroke-opacity="1"/><path d="M1385,-98L1575,-62L1723,-82Z" fill="#d58093" stroke="#d58093" fill-opacity="1" stroke-opacity="1"/><path d="M1385,-98L1723,-82L1993,-95Z" fill="#c18093" stroke="#c18093" fill-opacity="1" stroke-opacity="1"/><path d="M1575,-62L1458,60L1594,96Z" fill="#d78085" stroke="#d78085" fill-opacity="1" stroke-opacity="1"/><path d="M1575,-62L1594,96L1723,-82Z" fill="#cb8091" stroke="#cb8091" fill-opacity="1" stroke-opacity="1"/><path d="M1723,-82L1594,96L1751,94Z" fill="#c28084" stroke="#c28084" fill-opacity="1" stroke-opacity="1"/><path d="M1723,-82L1751,94L1834,-34Z" fill="#b7808f" stroke="#b7808f" fill-opacity="1" stroke-opacity="1"/><path d="M1723,-82L1834,-34L1993,-95Z" fill="#ab8093" stroke="#ab8093" fill-opacity="1" stroke-opacity="1"/><path d="M1834,-34L1751,94L1841,106Z" fill="#b1807f" stroke="#b1807f" fill-opacity="1" stroke-opacity="1"/><path d="M1834,-34L1841,106L2032,104Z" fill="#a4807e" stroke="#a4807e" fill-opacity="1" stroke-opacity="1"/><path d="M1834,-34L2032,104L1993,-95Z" fill="#9d808f" stroke="#9d808f" fill-opacity="1" stroke-opacity="1"/><path d="M-115,108L-102,952L-98,537Z" fill="#ffad8a" stroke="#ffad8a" fill-opacity="1" stroke-opacity="1"/><path d="M-115,108L-98,537L-33,347Z" fill="#ffe79a" stroke="#ffe79a" fill-opacity="1" stroke-opacity="1"/><path d="M-115,108L-33,347L-34,263Z" fill="#fffaac" stroke="#fffaac" fill-opacity="1" stroke-opacity="1"/><path d="M-115,108L-34,263L40,41Z" fill="#ffffc2" stroke="#ffffc2" fill-opacity="1" stroke-opacity="1"/><path d="M40,41L-34,263L65,263Z" fill="#fffeaf" stroke="#fffeaf" fill-opacity="1" stroke-opacity="1"/><path d="M40,41L65,263L195,78Z" fill="#fffbb6" stroke="#fffbb6" fill-opacity="1" stroke-opacity="1"/><path d="M195,78L65,263L228,208Z" fill="#fff8a2" stroke="#fff8a2" fill-opacity="1" stroke-opacity="1"/><path d="M195,78L228,208L395,78Z" fill="#fff3a6" stroke="#fff3a6" fill-opacity="1" stroke-opacity="1"/><path d="M395,78L228,208L340,258Z" fill="#fff193" stroke="#fff193" fill-opacity="1" stroke-opacity="1"/><path d="M395,78L340,258L563,239Z" fill="#ffec86" stroke="#ffec86" fill-opacity="1" stroke-opacity="1"/><path d="M395,78L563,239L506,31Z" fill="#ffe792" stroke="#ffe792" fill-opacity="1" stroke-opacity="1"/><path d="M506,31L563,239L677,86Z" fill="#ffde88" stroke="#ffde88" fill-opacity="1" stroke-opacity="1"/><path d="M677,86L563,239L675,201Z" fill="#ffd975" stroke="#ffd975" fill-opacity="1" stroke-opacity="1"/><path d="M677,86L675,201L822,248Z" fill="#ffd172" stroke="#ffd172" fill-opacity="1" stroke-opacity="1"/><path d="M677,86L822,248L869,35Z" fill="#fecc7c" stroke="#fecc7c" fill-opacity="1" stroke-opacity="1"/><path d="M869,35L822,248L987,65Z" fill="#fec17a" stroke="#fec17a" fill-opacity="1" stroke-opacity="1"/><path d="M987,65L822,248L977,260Z" fill="#febb67" stroke="#febb67" fill-opacity="1" stroke-opacity="1"/><path d="M987,65L977,260L1149,186Z" fill="#feab66" stroke="#feab66" fill-opacity="1" stroke-opacity="1"/><path d="M987,65L1149,186L1130,51Z" fill="#fca475" stroke="#fca475" fill-opacity="1" stroke-opacity="1"/><path d="M1130,51L1149,186L1286,59Z" fill="#f79872" stroke="#f79872" fill-opacity="1" stroke-opacity="1"/><path d="M1286,59L1149,186L1246,270Z" fill="#f49360" stroke="#f49360" fill-opacity="1" stroke-opacity="1"/><path d="M1286,59L1246,270L1429,213Z" fill="#ee8a5d" stroke="#ee8a5d" fill-opacity="1" stroke-opacity="1"/><path d="M1286,59L1429,213L1458,60Z" fill="#e7866f" stroke="#e7866f" fill-opacity="1" stroke-opacity="1"/><path d="M1458,60L1429,213L1594,96Z" fill="#de806f" stroke="#de806f" fill-opacity="1" stroke-opacity="1"/><path d="M1594,96L1429,213L1615,232Z" fill="#d78061" stroke="#d78061" fill-opacity="1" stroke-opacity="1"/><path d="M1594,96L1615,232L1695,185Z" fill="#ca8063" stroke="#ca8063" fill-opacity="1" stroke-opacity="1"/><path d="M1594,96L1695,185L1751,94Z" fill="#c4806e" stroke="#c4806e" fill-opacity="1" stroke-opacity="1"/><path d="M1751,94L1695,185L1841,106Z" fill="#b8806d" stroke="#b8806d" fill-opacity="1" stroke-opacity="1"/><path d="M1841,106L1695,185L1853,257Z" fill="#b38060" stroke="#b38060" fill-opacity="1" stroke-opacity="1"/><path d="M1841,106L1853,257L2026,203Z" fill="#a3805f" stroke="#a3805f" fill-opacity="1" stroke-opacity="1"/><path d="M1841,106L2026,203L2032,104Z" fill="#9b806b" stroke="#9b806b" fill-opacity="1" stroke-opacity="1"/><path d="M2032,104L2026,203L2061,355Z" fill="#907e57" stroke="#907e57" fill-opacity="1" stroke-opacity="1"/><path d="M-34,263L-33,347L65,263Z" fill="#ffef99" stroke="#ffef99" fill-opacity="1" stroke-opacity="1"/><path d="M65,263L-33,347L119,356Z" fill="#ffe78e" stroke="#ffe78e" fill-opacity="1" stroke-opacity="1"/><path d="M65,263L119,356L228,208Z" fill="#ffec8f" stroke="#ffec8f" fill-opacity="1" stroke-opacity="1"/><path d="M228,208L119,356L252,400Z" fill="#ffe07e" stroke="#ffe07e" fill-opacity="1" stroke-opacity="1"/><path d="M228,208L252,400L340,258Z" fill="#ffe37e" stroke="#ffe37e" fill-opacity="1" stroke-opacity="1"/><path d="M340,258L252,400L346,416Z" fill="#ffd470" stroke="#ffd470" fill-opacity="1" stroke-opacity="1"/><path d="M340,258L346,416L505,345Z" fill="#ffd369" stroke="#ffd369" fill-opacity="1" stroke-opacity="1"/><path d="M340,258L505,345L563,239Z" fill="#ffda6d" stroke="#ffda6d" fill-opacity="1" stroke-opacity="1"/><path d="M563,239L505,345L667,402Z" fill="#ffc658" stroke="#ffc658" fill-opacity="1" stroke-opacity="1"/><path d="M563,239L667,402L675,201Z" fill="#ffcb5c" stroke="#ffcb5c" fill-opacity="1" stroke-opacity="1"/><path d="M675,201L667,402L822,339Z" fill="#ffbd51" stroke="#ffbd51" fill-opacity="1" stroke-opacity="1"/><path d="M675,201L822,339L822,248Z" fill="#fec35b" stroke="#fec35b" fill-opacity="1" stroke-opacity="1"/><path d="M822,248L822,339L977,260Z" fill="#feb553" stroke="#feb553" fill-opacity="1" stroke-opacity="1"/><path d="M977,260L822,339L975,417Z" fill="#fea246" stroke="#fea246" fill-opacity="1" stroke-opacity="1"/><path d="M977,260L975,417L1087,331Z" fill="#fe9543" stroke="#fe9543" fill-opacity="1" stroke-opacity="1"/><path d="M977,260L1087,331L1149,186Z" fill="#fe9c50" stroke="#fe9c50" fill-opacity="1" stroke-opacity="1"/><path d="M1149,186L1087,331L1246,270Z" fill="#f8914c" stroke="#f8914c" fill-opacity="1" stroke-opacity="1"/><path d="M1246,270L1087,331L1162,482Z" fill="#f87c3b" stroke="#f87c3b" fill-opacity="1" stroke-opacity="1"/><path d="M1246,270L1162,482L1313,404Z" fill="#f46e37" stroke="#f46e37" fill-opacity="1" stroke-opacity="1"/><path d="M1246,270L1313,404L1395,383Z" fill="#ee6d39" stroke="#ee6d39" fill-opacity="1" stroke-opacity="1"/><path d="M1246,270L1395,383L1429,213Z" fill="#ea7844" stroke="#ea7844" fill-opacity="1" stroke-opacity="1"/><path d="M1429,213L1395,383L1607,402Z" fill="#e0683e" stroke="#e0683e" fill-opacity="1" stroke-opacity="1"/><path d="M1429,213L1607,402L1615,232Z" fill="#d67149" stroke="#d67149" fill-opacity="1" stroke-opacity="1"/><path d="M1615,232L1607,402L1744,341Z" fill="#c76940" stroke="#c76940" fill-opacity="1" stroke-opacity="1"/><path d="M1615,232L1744,341L1695,185Z" fill="#c37750" stroke="#c37750" fill-opacity="1" stroke-opacity="1"/><path d="M1695,185L1744,341L1853,257Z" fill="#b8764e" stroke="#b8764e" fill-opacity="1" stroke-opacity="1"/><path d="M1853,257L1744,341L1857,361Z" fill="#b06a40" stroke="#b06a40" fill-opacity="1" stroke-opacity="1"/><path d="M1853,257L1857,361L2061,355Z" fill="#a16940" stroke="#a16940" fill-opacity="1" stroke-opacity="1"/><path d="M1853,257L2061,355L2026,203Z" fill="#99734b" stroke="#99734b" fill-opacity="1" stroke-opacity="1"/><path d="M-33,347L-98,537L92,543Z" fill="#ffc186" stroke="#ffc186" fill-opacity="1" stroke-opacity="1"/><path d="M-33,347L92,543L119,356Z" fill="#ffd384" stroke="#ffd384" fill-opacity="1" stroke-opacity="1"/><path d="M119,356L92,543L252,400Z" fill="#ffc979" stroke="#ffc979" fill-opacity="1" stroke-opacity="1"/><path d="M252,400L92,543L247,543Z" fill="#ffb16e" stroke="#ffb16e" fill-opacity="1" stroke-opacity="1"/><path d="M252,400L247,543L346,416Z" fill="#ffbd6a" stroke="#ffbd6a" fill-opacity="1" stroke-opacity="1"/><path d="M346,416L247,543L389,544Z" fill="#ffa961" stroke="#ffa961" fill-opacity="1" stroke-opacity="1"/><path d="M346,416L389,544L491,502Z" fill="#ffab5a" stroke="#ffab5a" fill-opacity="1" stroke-opacity="1"/><path d="M346,416L491,502L505,345Z" fill="#ffbf5d" stroke="#ffbf5d" fill-opacity="1" stroke-opacity="1"/><path d="M505,345L491,502L667,402Z" fill="#ffb653" stroke="#ffb653" fill-opacity="1" stroke-opacity="1"/><path d="M667,402L491,502L697,508Z" fill="#ff9e47" stroke="#ff9e47" fill-opacity="1" stroke-opacity="1"/><path d="M667,402L697,508L822,339Z" fill="#ffa747" stroke="#ffa747" fill-opacity="1" stroke-opacity="1"/><path d="M822,339L697,508L816,564Z" fill="#fe9040" stroke="#fe9040" fill-opacity="1" stroke-opacity="1"/><path d="M822,339L816,564L975,417Z" fill="#fe923f" stroke="#fe923f" fill-opacity="1" stroke-opacity="1"/><path d="M975,417L816,564L983,536Z" fill="#fe7336" stroke="#fe7336" fill-opacity="1" stroke-opacity="1"/><path d="M975,417L983,536L1162,482Z" fill="#fe6b34" stroke="#fe6b34" fill-opacity="1" stroke-opacity="1"/><path d="M975,417L1162,482L1087,331Z" fill="#fd7d3a" stroke="#fd7d3a" fill-opacity="1" stroke-opacity="1"/><path d="M1313,404L1162,482L1301,530Z" fill="#f3522d" stroke="#f3522d" fill-opacity="1" stroke-opacity="1"/><path d="M1313,404L1301,530L1396,559Z" fill="#ec432c" stroke="#ec432c" fill-opacity="1" stroke-opacity="1"/><path d="M1313,404L1396,559L1395,383Z" fill="#e95231" stroke="#e95231" fill-opacity="1" stroke-opacity="1"/><path d="M1395,383L1396,559L1537,513Z" fill="#e34130" stroke="#e34130" fill-opacity="1" stroke-opacity="1"/><path d="M1395,383L1537,513L1607,402Z" fill="#dc5136" stroke="#dc5136" fill-opacity="1" stroke-opacity="1"/><path d="M1607,402L1537,513L1728,501Z" fill="#cc4332" stroke="#cc4332" fill-opacity="1" stroke-opacity="1"/><path d="M1607,402L1728,501L1744,341Z" fill="#c25637" stroke="#c25637" fill-opacity="1" stroke-opacity="1"/><path d="M1744,341L1728,501L1857,361Z" fill="#b65939" stroke="#b65939" fill-opacity="1" stroke-opacity="1"/><path d="M1857,361L1728,501L1920,561Z" fill="#ae4232" stroke="#ae4232" fill-opacity="1" stroke-opacity="1"/><path d="M1857,361L1920,561L2045,499Z" fill="#9e4232" stroke="#9e4232" fill-opacity="1" stroke-opacity="1"/><path d="M1857,361L2045,499L2061,355Z" fill="#985838" stroke="#985838" fill-opacity="1" stroke-opacity="1"/><path d="M2061,355L2045,499L2041,1083Z" fill="#8d1025" stroke="#8d1025" fill-opacity="1" stroke-opacity="1"/><path d="M-98,537L-102,952L-95,685Z" fill="#f28286" stroke="#f28286" fill-opacity="1" stroke-opacity="1"/><path d="M-98,537L-95,685L80,690Z" fill="#ff917c" stroke="#ff917c" fill-opacity="1" stroke-opacity="1"/><path d="M-98,537L80,690L92,543Z" fill="#ff9c78" stroke="#ff9c78" fill-opacity="1" stroke-opacity="1"/><path d="M92,543L80,690L191,686Z" fill="#fe8b6c" stroke="#fe8b6c" fill-opacity="1" stroke-opacity="1"/><path d="M92,543L191,686L247,543Z" fill="#ff9569" stroke="#ff9569" fill-opacity="1" stroke-opacity="1"/><path d="M247,543L191,686L381,709Z" fill="#fd835c" stroke="#fd835c" fill-opacity="1" stroke-opacity="1"/><path d="M247,543L381,709L389,544Z" fill="#ff8c58" stroke="#ff8c58" fill-opacity="1" stroke-opacity="1"/><path d="M389,544L381,709L506,717Z" fill="#fb7a4e" stroke="#fb7a4e" fill-opacity="1" stroke-opacity="1"/><path d="M389,544L506,717L491,502Z" fill="#ff884c" stroke="#ff884c" fill-opacity="1" stroke-opacity="1"/><path d="M491,502L506,717L685,678Z" fill="#ff7340" stroke="#ff7340" fill-opacity="1" stroke-opacity="1"/><path d="M491,502L685,678L697,508Z" fill="#ff803e" stroke="#ff803e" fill-opacity="1" stroke-opacity="1"/><path d="M697,508L685,678L816,564Z" fill="#ff7038" stroke="#ff7038" fill-opacity="1" stroke-opacity="1"/><path d="M816,564L685,678L864,671Z" fill="#fe5d32" stroke="#fe5d32" fill-opacity="1" stroke-opacity="1"/><path d="M816,564L864,671L983,536Z" fill="#fe5f31" stroke="#fe5f31" fill-opacity="1" stroke-opacity="1"/><path d="M983,536L864,671L940,684Z" fill="#fe4e2d" stroke="#fe4e2d" fill-opacity="1" stroke-opacity="1"/><path d="M983,536L940,684L1081,703Z" fill="#fd412a" stroke="#fd412a" fill-opacity="1" stroke-opacity="1"/><path d="M983,536L1081,703L1162,482Z" fill="#fd482a" stroke="#fd482a" fill-opacity="1" stroke-opacity="1"/><path d="M1162,482L1081,703L1252,638Z" fill="#f83426" stroke="#f83426" fill-opacity="1" stroke-opacity="1"/><path d="M1162,482L1252,638L1301,530Z" fill="#f43b27" stroke="#f43b27" fill-opacity="1" stroke-opacity="1"/><path d="M1301,530L1252,638L1396,559Z" fill="#ee2d25" stroke="#ee2d25" fill-opacity="1" stroke-opacity="1"/><path d="M1396,559L1252,638L1425,677Z" fill="#ea1d22" stroke="#ea1d22" fill-opacity="1" stroke-opacity="1"/><path d="M1396,559L1425,677L1537,513Z" fill="#e22227" stroke="#e22227" fill-opacity="1" stroke-opacity="1"/><path d="M1537,513L1425,677L1619,675Z" fill="#da1526" stroke="#da1526" fill-opacity="1" stroke-opacity="1"/><path d="M1537,513L1619,675L1707,650Z" fill="#cc1726" stroke="#cc1726" fill-opacity="1" stroke-opacity="1"/><path d="M1537,513L1707,650L1728,501Z" fill="#c7272a" stroke="#c7272a" fill-opacity="1" stroke-opacity="1"/><path d="M1728,501L1707,650L1878,678Z" fill="#b71826" stroke="#b71826" fill-opacity="1" stroke-opacity="1"/><path d="M1728,501L1878,678L1920,561Z" fill="#ad2029" stroke="#ad2029" fill-opacity="1" stroke-opacity="1"/><path d="M1920,561L1878,678L2018,662Z" fill="#9f1225" stroke="#9f1225" fill-opacity="1" stroke-opacity="1"/><path d="M1920,561L2018,662L2045,499Z" fill="#972229" stroke="#972229" fill-opacity="1" stroke-opacity="1"/><path d="M2045,499L2018,662L2012,812Z" fill="#8f0e26" stroke="#8f0e26" fill-opacity="1" stroke-opacity="1"/><path d="M2045,499L2012,812L2020,946Z" fill="#7f002a" stroke="#7f002a" fill-opacity="1" stroke-opacity="1"/><path d="M2045,499L2020,946L2041,1083Z" fill="#5e002a" stroke="#5e002a" fill-opacity="1" stroke-opacity="1"/><path d="M-95,685L-102,952L-54,862Z" fill="#d08085" stroke="#d08085" fill-opacity="1" stroke-opacity="1"/><path d="M-95,685L-54,862L80,690Z" fill="#ee807f" stroke="#ee807f" fill-opacity="1" stroke-opacity="1"/><path d="M80,690L-54,862L48,863Z" fill="#d97f7a" stroke="#d97f7a" fill-opacity="1" stroke-opacity="1"/><path d="M80,690L48,863L191,686Z" fill="#ee7b72" stroke="#ee7b72" fill-opacity="1" stroke-opacity="1"/><path d="M191,686L48,863L260,863Z" fill="#da796c" stroke="#da796c" fill-opacity="1" stroke-opacity="1"/><path d="M191,686L260,863L367,801Z" fill="#e17461" stroke="#e17461" fill-opacity="1" stroke-opacity="1"/><path d="M191,686L367,801L381,709Z" fill="#f1735c" stroke="#f1735c" fill-opacity="1" stroke-opacity="1"/><path d="M381,709L367,801L506,717Z" fill="#ef6d53" stroke="#ef6d53" fill-opacity="1" stroke-opacity="1"/><path d="M506,717L367,801L567,783Z" fill="#e6684d" stroke="#e6684d" fill-opacity="1" stroke-opacity="1"/><path d="M506,717L567,783L685,678Z" fill="#f26042" stroke="#f26042" fill-opacity="1" stroke-opacity="1"/><path d="M685,678L567,783L635,839Z" fill="#e65a3e" stroke="#e65a3e" fill-opacity="1" stroke-opacity="1"/><path d="M685,678L635,839L865,809Z" fill="#e35239" stroke="#e35239" fill-opacity="1" stroke-opacity="1"/><path d="M685,678L865,809L864,671Z" fill="#f24e36" stroke="#f24e36" fill-opacity="1" stroke-opacity="1"/><path d="M864,671L865,809L940,684Z" fill="#f24432" stroke="#f24432" fill-opacity="1" stroke-opacity="1"/><path d="M940,684L865,809L1007,806Z" fill="#e63a31" stroke="#e63a31" fill-opacity="1" stroke-opacity="1"/><path d="M940,684L1007,806L1081,703Z" fill="#f0312e" stroke="#f0312e" fill-opacity="1" stroke-opacity="1"/><path d="M1081,703L1007,806L1125,857Z" fill="#de272c" stroke="#de272c" fill-opacity="1" stroke-opacity="1"/><path d="M1081,703L1125,857L1252,638Z" fill="#eb1e28" stroke="#eb1e28" fill-opacity="1" stroke-opacity="1"/><path d="M1252,638L1125,857L1312,812Z" fill="#db1326" stroke="#db1326" fill-opacity="1" stroke-opacity="1"/><path d="M1252,638L1312,812L1425,677Z" fill="#e20f24" stroke="#e20f24" fill-opacity="1" stroke-opacity="1"/><path d="M1425,677L1312,812L1432,820Z" fill="#ce0727" stroke="#ce0727" fill-opacity="1" stroke-opacity="1"/><path d="M1425,677L1432,820L1547,859Z" fill="#c20229" stroke="#c20229" fill-opacity="1" stroke-opacity="1"/><path d="M1425,677L1547,859L1619,675Z" fill="#cb012a" stroke="#cb012a" fill-opacity="1" stroke-opacity="1"/><path d="M1619,675L1547,859L1686,836Z" fill="#ac002a" stroke="#ac002a" fill-opacity="1" stroke-opacity="1"/><path d="M1619,675L1686,836L1707,650Z" fill="#b90329" stroke="#b90329" fill-opacity="1" stroke-opacity="1"/><path d="M1707,650L1686,836L1878,678Z" fill="#ac0329" stroke="#ac0329" fill-opacity="1" stroke-opacity="1"/><path d="M1878,678L1686,836L1891,869Z" fill="#8e002a" stroke="#8e002a" fill-opacity="1" stroke-opacity="1"/><path d="M1878,678L1891,869L2012,812Z" fill="#81002a" stroke="#81002a" fill-opacity="1" stroke-opacity="1"/><path d="M1878,678L2012,812L2018,662Z" fill="#8e0429" stroke="#8e0429" fill-opacity="1" stroke-opacity="1"/><path d="M-54,862L-102,952L48,863Z" fill="#bb8080" stroke="#bb8080" fill-opacity="1" stroke-opacity="1"/><path d="M48,863L-102,952L85,1000Z" fill="#ab7f7c" stroke="#ab7f7c" fill-opacity="1" stroke-opacity="1"/><path d="M48,863L85,1000L260,863Z" fill="#b67a6f" stroke="#b67a6f" fill-opacity="1" stroke-opacity="1"/><path d="M260,863L85,1000L238,1020Z" fill="#a37869" stroke="#a37869" fill-opacity="1" stroke-opacity="1"/><path d="M260,863L238,1020L404,939Z" fill="#aa735e" stroke="#aa735e" fill-opacity="1" stroke-opacity="1"/><path d="M260,863L404,939L367,801Z" fill="#c3715a" stroke="#c3715a" fill-opacity="1" stroke-opacity="1"/><path d="M367,801L404,939L567,783Z" fill="#cc6b50" stroke="#cc6b50" fill-opacity="1" stroke-opacity="1"/><path d="M567,783L404,939L531,975Z" fill="#b8664a" stroke="#b8664a" fill-opacity="1" stroke-opacity="1"/><path d="M567,783L531,975L635,839Z" fill="#c45f43" stroke="#c45f43" fill-opacity="1" stroke-opacity="1"/><path d="M635,839L531,975L645,936Z" fill="#b25d40" stroke="#b25d40" fill-opacity="1" stroke-opacity="1"/><path d="M635,839L645,936L865,809Z" fill="#c5533a" stroke="#c5533a" fill-opacity="1" stroke-opacity="1"/><path d="M865,809L645,936L827,1002Z" fill="#b24d38" stroke="#b24d38" fill-opacity="1" stroke-opacity="1"/><path d="M865,809L827,1002L999,963Z" fill="#af4033" stroke="#af4033" fill-opacity="1" stroke-opacity="1"/><path d="M865,809L999,963L1007,806Z" fill="#c63830" stroke="#c63830" fill-opacity="1" stroke-opacity="1"/><path d="M1007,806L999,963L1125,857Z" fill="#c02b2d" stroke="#c02b2d" fill-opacity="1" stroke-opacity="1"/><path d="M1125,857L999,963L1122,971Z" fill="#ac252b" stroke="#ac252b" fill-opacity="1" stroke-opacity="1"/><path d="M1125,857L1122,971L1233,953Z" fill="#a81c29" stroke="#a81c29" fill-opacity="1" stroke-opacity="1"/><path d="M1125,857L1233,953L1312,812Z" fill="#b71427" stroke="#b71427" fill-opacity="1" stroke-opacity="1"/><path d="M1312,812L1233,953L1395,977Z" fill="#a30b26" stroke="#a30b26" fill-opacity="1" stroke-opacity="1"/><path d="M1312,812L1395,977L1432,820Z" fill="#ac0727" stroke="#ac0727" fill-opacity="1" stroke-opacity="1"/><path d="M1432,820L1395,977L1536,966Z" fill="#940329" stroke="#940329" fill-opacity="1" stroke-opacity="1"/><path d="M1432,820L1536,966L1547,859Z" fill="#9c002a" stroke="#9c002a" fill-opacity="1" stroke-opacity="1"/><path d="M1547,859L1536,966L1686,836Z" fill="#8f002a" stroke="#8f002a" fill-opacity="1" stroke-opacity="1"/><path d="M1686,836L1536,966L1748,1005Z" fill="#74002a" stroke="#74002a" fill-opacity="1" stroke-opacity="1"/><path d="M1686,836L1748,1005L1891,869Z" fill="#6e002a" stroke="#6e002a" fill-opacity="1" stroke-opacity="1"/><path d="M1891,869L1748,1005L1884,997Z" fill="#52002a" stroke="#52002a" fill-opacity="1" stroke-opacity="1"/><path d="M1891,869L1884,997L2020,946Z" fill="#4c002a" stroke="#4c002a" fill-opacity="1" stroke-opacity="1"/><path d="M1891,869L2020,946L2012,812Z" fill="#5b002a" stroke="#5b002a" fill-opacity="1" stroke-opacity="1"/><path d="M-102,952L-41,1163L85,1000Z" fill="#89807f" stroke="#89807f" fill-opacity="1" stroke-opacity="1"/><path d="M85,1000L-41,1163L48,1154Z" fill="#807e7a" stroke="#807e7a" fill-opacity="1" stroke-opacity="1"/><path d="M85,1000L48,1154L187,1164Z" fill="#807b72" stroke="#807b72" fill-opacity="1" stroke-opacity="1"/><path d="M85,1000L187,1164L238,1020Z" fill="#81796b" stroke="#81796b" fill-opacity="1" stroke-opacity="1"/><path d="M238,1020L187,1164L332,1158Z" fill="#807563" stroke="#807563" fill-opacity="1" stroke-opacity="1"/><path d="M238,1020L332,1158L404,939Z" fill="#88725c" stroke="#88725c" fill-opacity="1" stroke-opacity="1"/><path d="M404,939L332,1158L504,1146Z" fill="#7f6d53" stroke="#7f6d53" fill-opacity="1" stroke-opacity="1"/><path d="M404,939L504,1146L531,975Z" fill="#8f684d" stroke="#8f684d" fill-opacity="1" stroke-opacity="1"/><path d="M531,975L504,1146L708,1082Z" fill="#7f5f43" stroke="#7f5f43" fill-opacity="1" stroke-opacity="1"/><path d="M531,975L708,1082L645,936Z" fill="#965a3e" stroke="#965a3e" fill-opacity="1" stroke-opacity="1"/><path d="M645,936L708,1082L827,1002Z" fill="#93523a" stroke="#93523a" fill-opacity="1" stroke-opacity="1"/><path d="M827,1002L708,1082L864,1087Z" fill="#814b37" stroke="#814b37" fill-opacity="1" stroke-opacity="1"/><path d="M827,1002L864,1087L999,963Z" fill="#8f4033" stroke="#8f4033" fill-opacity="1" stroke-opacity="1"/><path d="M999,963L864,1087L936,1139Z" fill="#7f3b31" stroke="#7f3b31" fill-opacity="1" stroke-opacity="1"/><path d="M999,963L936,1139L1124,1093Z" fill="#7e2e2e" stroke="#7e2e2e" fill-opacity="1" stroke-opacity="1"/><path d="M999,963L1124,1093L1122,971Z" fill="#90252b" stroke="#90252b" fill-opacity="1" stroke-opacity="1"/><path d="M1122,971L1124,1093L1233,953Z" fill="#8d1c29" stroke="#8d1c29" fill-opacity="1" stroke-opacity="1"/><path d="M1233,953L1124,1093L1264,1113Z" fill="#7a1627" stroke="#7a1627" fill-opacity="1" stroke-opacity="1"/><path d="M1233,953L1264,1113L1395,977Z" fill="#820c25" stroke="#820c25" fill-opacity="1" stroke-opacity="1"/><path d="M1395,977L1264,1113L1459,1099Z" fill="#6a0827" stroke="#6a0827" fill-opacity="1" stroke-opacity="1"/><path d="M1395,977L1459,1099L1536,966Z" fill="#730229" stroke="#730229" fill-opacity="1" stroke-opacity="1"/><path d="M1536,966L1459,1099L1536,1106Z" fill="#5f002a" stroke="#5f002a" fill-opacity="1" stroke-opacity="1"/><path d="M1536,966L1536,1106L1748,1005Z" fill="#5c002a" stroke="#5c002a" fill-opacity="1" stroke-opacity="1"/><path d="M1748,1005L1536,1106L1742,1136Z" fill="#45002a" stroke="#45002a" fill-opacity="1" stroke-opacity="1"/><path d="M1748,1005L1742,1136L1884,997Z" fill="#3b002a" stroke="#3b002a" fill-opacity="1" stroke-opacity="1"/><path d="M1884,997L1742,1136L1916,1118Z" fill="#2c002a" stroke="#2c002a" fill-opacity="1" stroke-opacity="1"/><path d="M1884,997L1916,1118L2041,1083Z" fill="#1e002a" stroke="#1e002a" fill-opacity="1" stroke-opacity="1"/><path d="M1884,997L2041,1083L2020,946Z" fill="#2c002a" stroke="#2c002a" fill-opacity="1" stroke-opacity="1"/><path d="M-41,1163L187,1164L48,1154Z" fill="#807d76" stroke="#807d76" fill-opacity="1" stroke-opacity="1"/><path d="M187,1164L1742,1136L332,1158Z" fill="#7f4f39" stroke="#7f4f39" fill-opacity="1" stroke-opacity="1"/><path d="M332,1158L1742,1136L936,1139Z" fill="#7e312e" stroke="#7e312e" fill-opacity="1" stroke-opacity="1"/><path d="M332,1158L936,1139L504,1146Z" fill="#7f5e42" stroke="#7f5e42" fill-opacity="1" stroke-opacity="1"/><path d="M504,1146L936,1139L708,1082Z" fill="#7f533a" stroke="#7f533a" fill-opacity="1" stroke-opacity="1"/><path d="M708,1082L936,1139L864,1087Z" fill="#7f4835" stroke="#7f4835" fill-opacity="1" stroke-opacity="1"/><path d="M936,1139L1742,1136L1264,1113Z" fill="#6f0b26" stroke="#6f0b26" fill-opacity="1" stroke-opacity="1"/><path d="M936,1139L1264,1113L1124,1093Z" fill="#7c222a" stroke="#7c222a" fill-opacity="1" stroke-opacity="1"/><path d="M1264,1113L1742,1136L1536,1106Z" fill="#5c002a" stroke="#5c002a" fill-opacity="1" stroke-opacity="1"/><path d="M1264,1113L1536,1106L1459,1099Z" fill="#650528" stroke="#650528" fill-opacity="1" stroke-opacity="1"/></g></svg>