<?xml version="1.0" encoding="iso-8859-1"?>
<!-- Generator: Adobe Illustrator 16.0.0, SVG Export Plug-In . SVG Version: 6.00 Build 0)  -->
<!DOCTYPE svg PUBLIC "-//W3C//DTD SVG 1.1//EN" "http://www.w3.org/Graphics/SVG/1.1/DTD/svg11.dtd">
<svg version="1.1" id="Capa_1" xmlns="http://www.w3.org/2000/svg" xmlns:xlink="http://www.w3.org/1999/xlink" x="0px" y="0px"
	 width="49.43px" height="49.43px" viewBox="0 0 49.43 49.43" style="enable-background:new 0 0 49.43 49.43;" xml:space="preserve"
	>
<g>
	<g id="Layer_54_10_">
		<g>
			<polygon points="14.849,27.219 13.943,27.219 13.943,26.65 14.849,26.65 14.849,25.346 4.132,25.346 0,25.553 0,28.396 
				14.849,28.396 			"/>
			<path d="M16.591,39.967h28.712V21.033H16.591V39.967z M18.742,23.184h24.409v14.633H18.742V23.184z"/>
			<path d="M45.299,40.846H31.354h-0.818H16.59l-4.132,0.207v2.844H49.43v-2.844L45.299,40.846z M35.004,42.719h-8.604V42.15h8.604
				V42.719z"/>
			<polygon points="14.849,22.316 6.284,22.316 6.284,7.684 30.694,7.684 30.694,19.133 32.844,19.133 32.844,5.533 4.133,5.533 
				4.133,24.466 14.849,24.466 			"/>
		</g>
	</g>
</g>
<g>
</g>
<g>
</g>
<g>
</g>
<g>
</g>
<g>
</g>
<g>
</g>
<g>
</g>
<g>
</g>
<g>
</g>
<g>
</g>
<g>
</g>
<g>
</g>
<g>
</g>
<g>
</g>
<g>
</g>
</svg>
