<svg height="464pt" viewBox="0 0 464 464" width="464pt" xmlns="http://www.w3.org/2000/svg"><path d="m440 464c-13.230469 0-24-10.769531-24-24s10.769531-24 24-24 24 10.769531 24 24-10.769531 24-24 24zm0-32c-4.414062 0-8 3.585938-8 8s3.585938 8 8 8 8-3.585938 8-8-3.585938-8-8-8zm0 0"/><path d="m24 48c-13.230469 0-24-10.769531-24-24s10.769531-24 24-24 24 10.769531 24 24-10.769531 24-24 24zm0-32c-4.414062 0-8 3.585938-8 8s3.585938 8 8 8 8-3.585938 8-8-3.585938-8-8-8zm0 0"/><path d="m16 72h16v16h-16zm0 0"/><path d="m16 112h16v16h-16zm0 0"/><path d="m16 152h16v16h-16zm0 0"/><path d="m432 296h16v16h-16zm0 0"/><path d="m432 336h16v16h-16zm0 0"/><path d="m432 376h16v16h-16zm0 0"/><path d="m64 424h-24v-128h24zm107.3125 0-24-24h-67.3125v-88h83.3125l32-32h100.6875c4.414062 0 8 3.585938 8 8s-3.585938 8-8 8h-83.3125l-34.34375 34.34375 11.3125 11.3125 18.34375-18.34375v100.6875zm164.695312-40c0 4.414062-3.582031 8-8 8h-64.007812c-4.414062 0-8-3.585938-8-8s3.585938-8 8-8h64.007812c4.417969 0 8 3.59375 8 8zm-72.007812-24c-4.414062 0-8-3.585938-8-8s3.585938-8 8-8h64.007812c4.417969 0 8 3.585938 8 8s-3.582031 8-8 8zm64.007812-32h-64.007812c-4.414062 0-8-3.585938-8-8s3.585938-8 8-8h64.007812c4.417969 0 8 3.585938 8 8s-3.582031 8-8 8zm-107.320312-144h38.625l12.6875-12.6875v-35.3125c8.824219 0 16 7.175781 16 16v36.6875l-27.3125 27.3125h-41.375l-27.3125-27.3125v-36.6875c0-8.824219 7.175781-16 16-16v35.3125zm3.3125 48h32v32h-32zm48-4.6875 32-32v-43.3125c0-17.648438-14.351562-32-32-32h-16v44.6875l-3.3125 3.3125h-25.375l-3.3125-3.3125v-44.6875h-16c-17.648438 0-32 14.351562-32 32v43.3125l32 32v36.6875h-19.3125l-.503906.503906c-27.3125-17.625-44.183594-47.839844-44.183594-80.503906 0-52.9375 43.0625-96 96-96s96 43.0625 96 96c0 32.425781-16.199219 62.121094-43.304688 80h-20.695312zm47.617188 56.886719c-.914063-5.671875-3.808594-10.632813-7.96875-14.238281 25.496093-21.167969 40.351562-52.328126 40.351562-85.960938 0-61.761719-50.238281-112-112-112s-112 50.238281-112 112c0 36.953125 18.382812 71.359375 48.527344 92.160156l-11.519532 11.519532c-33.214843-24.070313-53.007812-62.574219-53.007812-103.679688 0-70.574219 57.425781-128 128-128s128 57.425781 128 128c0 39.542969-17.871094 76.015625-48.382812 100.199219zm-79.617188 179.800781c-8.824219 0-16-7.175781-16-16v-136h17.472656c-.898437 2.511719-1.472656 5.183594-1.472656 8 0 6.167969 2.40625 11.742188 6.238281 16-3.839843 4.257812-6.238281 9.832031-6.238281 16s2.40625 11.742188 6.238281 16c-3.839843 4.257812-6.238281 9.832031-6.238281 16s2.40625 11.742188 6.238281 16c-3.839843 4.257812-6.238281 9.832031-6.238281 16 0 10.414062 6.710938 19.214844 16 22.527344v9.472656c0 8.824219-7.175781 16-16 16zm88.007812-40h-64.007812c-4.414062 0-8-3.585938-8-8s3.585938-8 8-8h64.007812c4.417969 0 8 3.585938 8 8s-3.582031 8-8 8zm66.3125-134.070312-47.265624 47.636718c-.40625-.535156-.839844-1.0625-1.285157-1.558594 3.839844-4.253906 6.238281-9.832031 6.238281-16 0-12.480468-9.609374-22.640624-21.792968-23.777343 33.9375-27.207031 53.785156-68.023438 53.785156-112.230469 0-79.398438-64.601562-144-144-144s-144 64.601562-144 144c0 43.671875 19.855469 84.753906 53.550781 112h-68.421875l18.933594-34.496094-1.972656-3.800781c-4.417969-8.472656-8-17.054687-10.664063-25.519531l-1.226562-3.886719-30.199219-10.058594v-68.46875l30.191406-10.066406 1.222656-3.886719c2.664063-8.472656 6.25-17.054687 10.664063-25.519531l1.890625-3.617187-14.289062-28.566407 48.410156-48.417969 28.574218 14.289063 3.617188-1.886719c8.472656-4.417968 17.054688-8 25.519531-10.664062l3.886719-1.226563 10.066406-30.191406h68.46875l10.066406 30.191406 3.886719 1.226563c8.472657 2.664062 17.054688 6.246094 25.519531 10.664062l3.617188 1.886719 28.574219-14.289063 48.410156 48.417969-14.289063 28.566407 1.886719 3.617187c4.417969 8.472656 8 17.054687 10.664063 25.519531l1.226562 3.886719 30.214844 10.066406v68.46875l-30.191406 10.066407-1.222656 3.886718c-2.664063 8.472656-6.25 17.054688-10.664063 25.519532l-1.890625 3.617187zm0 0"/></svg>